<svg width="18" height="18" viewBox="0 0 18 18" fill="none" xmlns="http://www.w3.org/2000/svg">
<path d="M7.22223 1.74237C8.42563 1.74133 9.60233 2.07741 10.6035 2.70808C11.6046 3.33876 12.3852 4.2357 12.8465 5.28544C13.3077 6.33518 13.429 7.49054 13.1949 8.60538C12.9608 9.72022 12.3819 10.7444 11.5313 11.5485C10.6808 12.3525 9.59683 12.9002 8.41663 13.1223C7.23642 13.3444 6.01298 13.231 4.90108 12.7963C3.78917 12.3616 2.83875 11.6252 2.17006 10.6802C1.50137 9.7353 1.14445 8.62429 1.14445 7.48774C1.15174 5.967 1.79425 4.51043 2.93231 3.43461C4.07038 2.35878 5.61204 1.75064 7.22223 1.74237ZM7.22223 0.666748C5.7938 0.666748 4.39746 1.06679 3.20977 1.81629C2.02209 2.56579 1.0964 3.63108 0.549762 4.87746C0.00312936 6.12383 -0.139895 7.4953 0.138776 8.81845C0.417447 10.1416 1.1053 11.357 2.11534 12.3109C3.12539 13.2648 4.41227 13.9145 5.81324 14.1777C7.21421 14.4408 8.66636 14.3058 9.98605 13.7895C11.3057 13.2732 12.4337 12.399 13.2273 11.2773C14.0209 10.1556 14.4444 8.8368 14.4444 7.48774C14.4444 5.6787 13.6835 3.94375 12.3291 2.66457C10.9747 1.38539 9.13768 0.666748 7.22223 0.666748Z" fill="#121212"/>
<path d="M17.5952 16.5597L13.5008 12.6665L12.7119 13.4063L16.8064 17.2995C16.8578 17.3484 16.9189 17.3873 16.9863 17.4139C17.0536 17.4405 17.1258 17.4544 17.1988 17.4546C17.2718 17.4548 17.3442 17.4415 17.4117 17.4153C17.4792 17.3892 17.5407 17.3507 17.5925 17.3021C17.6443 17.2536 17.6854 17.1958 17.7136 17.1322C17.7418 17.0686 17.7564 17.0004 17.7567 16.9315C17.7569 16.8625 17.7428 16.7942 17.7151 16.7304C17.6874 16.6666 17.6467 16.6086 17.5952 16.5597Z" fill="#121212"/>
</svg>
